<svg width="59" height="137" viewBox="0 0 59 137" fill="none" xmlns="http://www.w3.org/2000/svg">
<rect x="30" y="18" width="5" height="5" fill="#FFF3E9"/>
<rect x="24" y="18" width="5" height="5" fill="#FFF3E9"/>
<rect x="30" y="12" width="5" height="5" fill="#FFF3E9"/>
<rect x="24" y="12" width="5" height="5" fill="#FFF3E9"/>
<rect x="36" y="6" width="5" height="5" fill="#FFF3E9"/>
<rect x="36" y="12" width="5" height="5" fill="#FFF3E9"/>
<rect x="36" y="18" width="5" height="5" fill="#FFF3E9"/>
<rect x="30" y="6" width="5" height="5" fill="#FFF3E9"/>
<rect x="30" y="36" width="5" height="5" fill="#FFF3E9"/>
<rect x="24" y="36" width="5" height="5" fill="#FFF3E9"/>
<rect x="30" y="30" width="5" height="5" fill="#FFF3E9"/>
<rect x="24" y="30" width="5" height="5" fill="#FFF3E9"/>
<rect x="36" y="24" width="5" height="5" fill="#FFF3E9"/>
<rect x="36" y="30" width="5" height="5" fill="#FFF3E9"/>
<rect x="36" y="36" width="5" height="5" fill="#FFF3E9"/>
<rect x="30" y="24" width="5" height="5" fill="#FFF3E9"/>
<rect x="24" y="24" width="5" height="5" fill="#FFF3E9"/>
<rect x="30" y="72" width="5" height="5" fill="#FFF3E9"/>
<rect x="24" y="72" width="5" height="5" fill="#FFF3E9"/>
<rect x="30" y="66" width="5" height="5" fill="#FFF3E9"/>
<rect x="24" y="66" width="5" height="5" fill="#FFF3E9"/>
<rect x="36" y="60" width="5" height="5" fill="#FFF3E9"/>
<rect x="36" y="66" width="5" height="5" fill="#FFF3E9"/>
<rect x="36" y="72" width="5" height="5" fill="#FFF3E9"/>
<rect x="30" y="60" width="5" height="5" fill="#FFF3E9"/>
<rect x="24" y="60" width="5" height="5" fill="#FFF3E9"/>
<rect x="12" y="54" width="5" height="5" fill="#FFF3E9"/>
<rect x="18" y="42" width="5" height="5" fill="#FFF3E9"/>
<rect x="12" y="48" width="5" height="5" fill="#FFF3E9"/>
<rect x="18" y="36" width="5" height="5" fill="#FFF3E9"/>
<rect x="18" y="18" width="5" height="5" fill="#FFF3E9"/>
<rect x="18" y="48" width="5" height="5" fill="#FFF3E9"/>
<rect x="18" y="54" width="5" height="5" fill="#FFF3E9"/>
<rect x="18" y="24" width="5" height="5" fill="#FFF3E9"/>
<rect x="18" y="30" width="5" height="5" fill="#FFF3E9"/>
<rect x="12" y="72" width="5" height="5" fill="#FFF3E9"/>
<rect x="12" y="36" width="5" height="5" fill="#FFF3E9"/>
<rect x="12" y="66" width="5" height="5" fill="#FFF3E9"/>
<rect x="12" y="30" width="5" height="5" fill="#FFF3E9"/>
<rect x="18" y="60" width="5" height="5" fill="#FFF3E9"/>
<rect x="18" y="66" width="5" height="5" fill="#FFF3E9"/>
<rect x="18" y="72" width="5" height="5" fill="#FFF3E9"/>
<rect x="12" y="60" width="5" height="5" fill="#FFF3E9"/>
<rect x="42" y="12" width="5" height="5" fill="#FFF3E9"/>
<rect x="30" y="54" width="5" height="5" fill="#FFF3E9"/>
<rect x="24" y="54" width="5" height="5" fill="#FFF3E9"/>
<rect x="30" y="48" width="5" height="5" fill="#FFF3E9"/>
<rect x="24" y="48" width="5" height="5" fill="#FFF3E9"/>
<rect x="36" y="42" width="5" height="5" fill="#FFF3E9"/>
<rect x="36" y="48" width="5" height="5" fill="#FFF3E9"/>
<rect x="36" y="54" width="5" height="5" fill="#FFF3E9"/>
<rect x="48" y="18" width="5" height="5" fill="#FFF3E9"/>
<rect x="42" y="30" width="5" height="5" fill="#FFF3E9"/>
<rect x="42" y="90" width="5" height="5" fill="#FFF3E9"/>
<rect x="12" y="42" width="5" height="5" fill="#FFF3E9"/>
<rect x="42" y="48" width="5" height="5" fill="#FFF3E9"/>
<rect x="36" y="90" width="5" height="5" fill="#FFF3E9"/>
<rect x="42" y="24" width="5" height="5" fill="#7986CB"/>
<rect x="42" y="18" width="5" height="5" fill="#FFF3E9"/>
<rect x="30" y="90" width="5" height="5" fill="#FFF3E9"/>
<rect x="24" y="90" width="5" height="5" fill="#FFF3E9"/>
<rect x="12" y="84" width="5" height="5" fill="#81C784"/>
<rect x="12" y="78" width="5" height="5" fill="#FFF3E9"/>
<rect x="18" y="78" width="5" height="5" fill="#FFF3E9"/>
<rect x="18" y="84" width="5" height="5" fill="#FFF3E9"/>
<rect x="42" y="42" width="5" height="5" fill="#FFF3E9"/>
<rect x="42" y="60" width="5" height="5" fill="#FFF3E9"/>
<rect x="18" y="90" width="5" height="5" fill="#FFF3E9"/>
<rect x="42" y="54" width="5" height="5" fill="#FFF3E9"/>
<rect x="42" y="36" width="5" height="5" fill="#FFF3E9"/>
<rect x="12" y="90" width="5" height="5" fill="#FFF3E9"/>
<rect x="30" y="84" width="5" height="5" fill="#FFF3E9"/>
<rect x="24" y="84" width="5" height="5" fill="#FFF3E9"/>
<rect x="30" y="78" width="5" height="5" fill="#FFF3E9"/>
<rect x="24" y="78" width="5" height="5" fill="#FFF3E9"/>
<rect x="36" y="78" width="5" height="5" fill="#FFF3E9"/>
<rect x="36" y="84" width="5" height="5" fill="#FFF3E9"/>
<rect x="30" y="42" width="5" height="5" fill="#FFF3E9"/>
<rect x="24" y="42" width="5" height="5" fill="#FFF3E9"/>
<rect x="30" y="96" width="5" height="5" fill="#FFF3E9"/>
<rect x="24" y="96" width="5" height="5" fill="#FFF3E9"/>
<rect x="36" y="96" width="5" height="5" fill="#FFF3E9"/>
<rect x="6" y="72" width="5" height="5" fill="#FFF3E9"/>
<rect x="6" y="78" width="5" height="5" fill="#FFF3E9"/>
<rect y="84" width="5" height="5" fill="#FFF3E9"/>
<rect x="6" y="90" width="5" height="5" fill="#FFF3E9"/>
<rect x="18" y="102" width="5" height="5" fill="#FFF3E9"/>
<rect x="12" y="108" width="5" height="5" fill="#FFF3E9"/>
<rect x="18" y="96" width="5" height="5" fill="#FFF3E9"/>
<rect x="18" y="108" width="5" height="5" fill="#FFF3E9"/>
<rect x="18" y="114" width="5" height="5" fill="#FFF3E9"/>
<rect x="12" y="96" width="5" height="5" fill="#FFF3E9"/>
<rect y="72" width="5" height="5" fill="#FFF3E9"/>
<rect y="78" width="5" height="5" fill="#FFF3E9"/>
<rect x="30" y="114" width="5" height="5" fill="#FFF3E9"/>
<rect x="24" y="114" width="5" height="5" fill="#FFF3E9"/>
<rect x="30" y="108" width="5" height="5" fill="#FFF3E9"/>
<rect x="24" y="108" width="5" height="5" fill="#FFF3E9"/>
<rect x="36" y="102" width="5" height="5" fill="#FFF3E9"/>
<rect x="36" y="108" width="5" height="5" fill="#FFF3E9"/>
<rect x="42" y="72" width="5" height="5" fill="#FFF3E9"/>
<rect x="42" y="66" width="5" height="5" fill="#FFF3E9"/>
<rect x="48" y="30" width="5" height="5" fill="#FFF3E9"/>
<rect x="48" y="48" width="5" height="5" fill="#FFF3E9"/>
<rect x="48" y="42" width="5" height="5" fill="#FFF3E9"/>
<rect x="48" y="60" width="5" height="5" fill="#FFF3E9"/>
<rect x="48" y="54" width="5" height="5" fill="#FFF3E9"/>
<rect x="48" y="36" width="5" height="5" fill="#FFF3E9"/>
<rect x="48" y="72" width="5" height="5" fill="#FFF3E9"/>
<rect x="48" y="66" width="5" height="5" fill="#FFF3E9"/>
<rect x="42" y="78" width="5" height="5" fill="#FFF3E9"/>
<rect x="42" y="84" width="5" height="5" fill="#FFF3E9"/>
<rect x="48" y="24" width="5" height="5" fill="#FFF3E9"/>
<rect x="48" y="12" width="5" height="5" fill="#FFF3E9"/>
<rect x="54" y="12" width="5" height="5" fill="#FFF3E9"/>
<rect x="36" width="5" height="5" fill="#FFF3E9"/>
<rect x="42" y="6" width="5" height="5" fill="#FFF3E9"/>
<rect x="24" y="120" width="5" height="5" fill="#FFF3E9"/>
<rect x="6" y="84" width="5" height="5" fill="#FFF3E9"/>
<rect x="12" y="102" width="5" height="5" fill="#FFF3E9"/>
<rect x="6" y="54" width="5" height="5" fill="#FFF3E9"/>
<rect x="6" y="66" width="5" height="5" fill="#FFF3E9"/>
<rect y="66" width="5" height="5" fill="#FFF3E9"/>
<rect x="6" y="42" width="5" height="5" fill="#FFF3E9"/>
<rect x="6" y="48" width="5" height="5" fill="#FFF3E9"/>
<rect x="6" y="60" width="5" height="5" fill="#FFF3E9"/>
<rect y="60" width="5" height="5" fill="#FFF3E9"/>
<rect x="30" y="102" width="5" height="5" fill="#FFF3E9"/>
<rect x="24" y="126" width="5" height="5" fill="#FFF3E9"/>
<rect x="30" y="126" width="5" height="5" fill="#FFF3E9"/>
<rect x="30" y="132" width="5" height="5" fill="#FFF3E9"/>
<rect x="6" y="96" width="5" height="5" fill="#FFF3E9"/>
<rect x="30" y="120" width="5" height="5" fill="#FFF3E9"/>
<rect x="24" y="102" width="5" height="5" fill="#FFF3E9"/>
</svg>
